# xmcd
#
# Track frame offsets:
#	151
#	15833
#	34110
#	47881
#	62180
#	78505
#	90700
#	106673
#	121306
#	137717
#	150824
#	170153
#	181752
#	195141
#	208536
#
# Disc length: 2958 seconds
#
# Revision: 0
# Processed by: cddbd v1.5.2PL0 Copyright (c) Steve Scherf et al.
# Submitted via: dBpowerAMP V4.0
#
DISCID=b20b8c0f
DTITLE=Marie Haslemore - Got To Have A Heart To Climb A Mountain
DYEAR=1900
DGENRE=Country
TTITLE0=Grandpa
TTITLE1=New Old Songs
TTITLE2=Got To Have A Heart To Climb A Mountain
TTITLE3=Haere Mai and Hoki Mai
TTITLE4=Ribbon Of Highway
TTITLE5=Mama Say A Prayer
TTITLE6=Have Mercy
TTITLE7=Mama He`s Crazy
TTITLE8=Too Strong To Break
TTITLE9=Mountain Of Love
TTITLE10=Bed-time Story
TTITLE11=Oh Boy
TTITLE12=Johnny B Goode
TTITLE13=Somebodie`s Knockin
TTITLE14=You Remind Me Of A Love Song
EXTD=
EXTT0=
EXTT1=
EXTT2=
EXTT3=
EXTT4=
EXTT5=
EXTT6=
EXTT7=
EXTT8=
EXTT9=
EXTT10=
EXTT11=
EXTT12=
EXTT13=
EXTT14=
PLAYORDER=
